<svg width="423" height="202" viewBox="0 0 423 202" fill="none" xmlns="http://www.w3.org/2000/svg">
<path d="M0.840942 67.7054C0.840942 83.7992 13.9451 96.5804 29.9555 96.5804H41.4451C47.8305 96.5804 54.143 90.4346 54.143 83.9607V77.169C54.143 71.3461 50.4191 66.4919 45.4034 64.9554C45.0805 64.8773 44.9191 64.7159 44.9191 64.4711C44.9191 64.2263 45.0805 63.9867 45.4034 63.9034C50.6639 62.2054 54.3826 57.7575 54.3826 51.6117C54.3826 44.8148 48.5597 39.2367 41.4451 39.2367H30.2003C14.1847 39.2367 0.840942 51.6117 0.840942 67.7054ZM28.5024 73.7732V67.9502C28.5024 65.9294 29.6326 64.5544 31.7368 64.5544H36.992C37.5597 64.5544 37.8045 65.3617 37.1587 65.5232C33.518 67.0596 31.0076 70.1325 29.6326 73.9346C29.3097 74.5804 28.5024 74.3409 28.5024 73.7732Z" fill="white"/>
<path d="M83.9801 97.3097C99.027 97.3097 111.563 84.7732 111.563 69.7264V52.1795C111.563 45.0597 105.657 39.1534 98.7822 39.1534C91.5843 39.1534 85.7614 45.0597 85.7614 52.1795V68.0284C85.7614 69.0024 84.9541 70.0545 83.9801 70.0545C82.928 70.0545 82.2041 69.0024 82.2041 68.0284V52.1795C82.2041 45.0597 76.5426 39.1534 69.4228 39.1534C62.2249 39.1534 56.402 45.0597 56.402 52.1795V69.7264C56.402 84.7732 68.8551 97.3097 83.9801 97.3097Z" fill="white"/>
<path d="M165.183 51.8514C165.183 44.7368 159.276 39.1534 152.078 39.1534H134.526C111.157 39.1534 107.516 65.2003 123.365 73.5284C125.469 74.5805 127.818 75.4712 130.078 75.6326C130.729 75.8774 130.563 76.6847 129.917 76.6847C126.115 76.6847 121.912 75.6326 118.755 73.5284C115.198 76.117 113.662 79.3514 113.662 83.7212C113.662 89.4607 119.646 96.5805 126.521 96.5805H144.235C169.875 96.5805 171.735 64.9555 150.141 60.0232C149.49 59.8618 149.735 58.9712 150.38 58.9712C153.615 59.2159 156.771 60.0232 159.438 61.5597C163.24 59.617 165.183 56.0597 165.183 51.8514Z" fill="white"/>
<path d="M205.607 39.1534H180.127C172.93 39.1534 167.346 45.0597 167.346 52.1795C167.346 59.0545 172.93 64.9555 180.127 64.9555V84.367C180.127 91.5649 185.95 97.4712 192.909 97.4712C200.023 97.4712 205.93 91.5649 205.93 84.367L205.846 64.9555C213.044 64.9555 218.627 59.0545 218.627 52.1795C218.627 45.0597 212.805 39.1534 205.607 39.1534Z" fill="#FEBD2F"/>
<path d="M249.196 39.1534C233.18 39.1534 219.836 52.1795 219.836 68.3514C219.836 84.6118 233.18 97.3878 249.196 97.3878C265.451 97.3878 278.716 84.6118 278.716 68.3514C278.716 52.1795 265.451 39.1534 249.196 39.1534ZM249.196 64.7941C251.055 64.7941 252.591 66.0909 252.591 68.1118C252.591 69.9712 251.055 71.5076 249.196 71.5076C247.576 71.5076 246.039 69.9712 246.039 68.1118C246.039 66.0909 247.576 64.7941 249.196 64.7941Z" fill="#FEBD2F"/>
<path d="M332.014 51.8514C332.014 44.7368 326.107 39.1534 318.909 39.1534H301.357C277.987 39.1534 274.347 65.2003 290.196 73.5284C292.3 74.5805 294.649 75.4712 296.909 75.6326C297.56 75.8774 297.394 76.6847 296.748 76.6847C292.946 76.6847 288.743 75.6326 285.586 73.5284C282.029 76.117 280.493 79.3514 280.493 83.7212C280.493 89.4607 286.477 96.5805 293.352 96.5805H311.066C336.706 96.5805 338.566 64.9555 316.972 60.0232C316.321 59.8618 316.566 58.9712 317.211 58.9712C320.446 59.2159 323.602 60.0232 326.269 61.5597C330.071 59.617 332.014 56.0597 332.014 51.8514Z" fill="#FEBD2F"/>
<path d="M363.795 39.1534C347.78 39.1534 334.436 52.1795 334.436 68.3514C334.436 84.6118 347.78 97.3878 363.795 97.3878C380.05 97.3878 393.316 84.6118 393.316 68.3514C393.316 52.1795 380.05 39.1534 363.795 39.1534ZM363.795 64.7941C365.655 64.7941 367.191 66.0909 367.191 68.1118C367.191 69.9712 365.655 71.5076 363.795 71.5076C362.175 71.5076 360.639 69.9712 360.639 68.1118C360.639 66.0909 362.175 64.7941 363.795 64.7941Z" fill="#FEBD2F"/>
<mask id="mask0_90_2" style="mask-type:luminance" maskUnits="userSpaceOnUse" x="57" y="121" width="281" height="81">
<path d="M57.1198 121.625H337.12V201.578H57.1198V121.625Z" fill="white"/>
</mask>
<g mask="url(#mask0_90_2)">
<path d="M280.271 161.198C278.771 162.229 277.234 163.229 275.667 164.198L271.516 160.068L262.859 150.552C260.833 148.323 257.391 148.167 255.167 150.198L255.089 150.271C252.865 152.302 252.708 155.75 254.734 157.979L265.568 169.891C265.349 170.005 265.12 170.13 264.87 170.255V170.245C261.646 171.901 258.51 173.401 255.474 174.766L243.292 161.375C237.359 154.849 237.828 144.698 244.333 138.75L244.719 138.396C251.224 132.448 261.344 132.917 267.281 139.443L275.557 148.536C275.563 148.547 280.604 154.255 284.141 158.531C282.854 159.438 281.563 160.328 280.271 161.198ZM337.089 140.807L337.047 140.49C336.625 137.448 334.026 135.146 331 135.135C321.792 135.099 316.641 128.578 314.396 124.688C313.302 122.802 311.266 121.63 309.083 121.63C308.339 121.63 307.609 121.766 306.911 122.026L306.604 122.146C304.906 122.786 303.589 124.135 302.984 125.849C302.375 127.568 302.552 129.464 303.474 131.042C305.016 133.688 306.828 136.099 308.849 138.214C308.891 138.255 308.932 138.302 308.974 138.339C303.792 143.125 298.552 147.594 293.286 151.724L281.286 138.016L275.635 131.802C265.5 120.656 248.214 119.859 237.099 130.021L236.714 130.375C225.599 140.537 224.802 157.87 234.938 169.01L244.464 179.484C243.156 179.922 241.854 180.359 240.552 180.813C237.474 181.88 234.568 182.776 231.833 183.578V183.62C230.552 183.974 229.344 184.297 228.255 184.578C226.74 184.99 225.286 185.354 223.911 185.677C223.422 185.797 223.151 185.859 223.151 185.859C222.875 185.917 222.604 185.979 222.333 186.042C222.188 186.073 222.036 186.109 221.885 186.141C221.677 186.188 221.464 186.234 221.26 186.281C221.26 186.281 221.203 186.292 221.099 186.313C216.151 187.375 212.307 187.911 209.792 188.177V188.193C209.745 188.198 209.703 188.208 209.656 188.214C206.568 188.526 203.469 188.734 200.38 188.833C200.036 188.828 199.714 188.839 199.411 188.854C198.38 188.88 197.354 188.896 196.323 188.896C194.464 188.896 192.573 188.854 190.714 188.776C156.224 187.297 127.474 172.167 109.427 159.734C98.4375 152.167 89.9584 144.667 84.3854 139.24C84.7344 138.906 85.0781 138.563 85.4167 138.214C87.4271 136.115 89.2292 133.719 90.7656 131.089C91.6927 129.505 91.8698 127.599 91.2604 125.865C90.6459 124.135 89.3125 122.771 87.599 122.13L87.349 122.036C86.6563 121.776 85.9271 121.641 85.1823 121.641C83 121.641 80.9427 122.823 79.8281 124.724C78.8073 126.469 77.6198 128.052 76.2969 129.427C72.6875 133.193 68.3229 135.115 63.3438 135.141C60.2656 135.151 57.6354 137.453 57.2188 140.495L57.1771 140.807C56.9323 142.578 57.4636 144.37 58.6354 145.719C59.7917 147.052 61.4584 147.813 63.1875 147.818H63.2552C66.7552 147.818 70.1302 147.25 73.3229 146.13C78.5156 151.375 88.4063 160.615 102.031 170.026C114.365 178.547 127.24 185.474 140.302 190.615C156.714 197.073 173.464 200.714 190.089 201.443C192.172 201.531 194.281 201.578 196.359 201.578C215.781 201.578 234.995 197.635 253.896 189.818C257.516 188.323 261.12 186.688 264.708 184.906C267.953 183.302 271.188 181.578 274.411 179.74C277.911 177.745 281.396 175.609 284.87 173.349C296.635 165.667 308.255 156.438 319.698 145.656C323.25 147.094 327.047 147.818 331.005 147.818H331.057C332.807 147.813 334.474 147.052 335.63 145.719C336.802 144.37 337.333 142.578 337.089 140.807Z" fill="white"/>
</g>
<mask id="mask1_90_2" style="mask-type:luminance" maskUnits="userSpaceOnUse" x="375" y="0" width="42" height="55">
<path d="M375 0H416.333V54.6667H375V0Z" fill="white"/>
</mask>
<g mask="url(#mask1_90_2)">
<mask id="mask2_90_2" style="mask-type:luminance" maskUnits="userSpaceOnUse" x="351" y="-7" width="89" height="99">
<path d="M384.338 91.0625L351.302 19.302L406.708 -6.20837L439.745 65.552L384.338 91.0625Z" fill="white"/>
</mask>
<g mask="url(#mask2_90_2)">
<mask id="mask3_90_2" style="mask-type:luminance" maskUnits="userSpaceOnUse" x="351" y="-7" width="89" height="98">
<path d="M439.958 65.453L406.922 -6.30737L351.516 19.203L384.547 90.9635L439.958 65.453Z" fill="white"/>
</mask>
<g mask="url(#mask3_90_2)">
<path fill-rule="evenodd" clip-rule="evenodd" d="M375.333 52.7135C376.547 53.901 379.703 53.2916 381.208 52.9062C385.542 51.7968 390.24 50.0781 394.12 47.8437C398.802 45.1406 402.177 42.25 404.693 40.1875C413.474 32.9843 418.745 21.1875 414.307 10.1979C412.833 6.55725 411.198 3.56766 407.713 1.49995C400.026 -3.05213 393.25 4.78121 390.818 11.3802C388.776 16.9218 389.047 23.0468 388.865 28.8281C388.583 37.677 383.542 48.9322 375.333 52.7135Z" fill="#FEBD2F"/>
</g>
</g>
</g>
<mask id="mask4_90_2" style="mask-type:luminance" maskUnits="userSpaceOnUse" x="371" y="22" width="12" height="29">
<path d="M371 22.6666H383V50.6666H371V22.6666Z" fill="white"/>
</mask>
<g mask="url(#mask4_90_2)">
<mask id="mask5_90_2" style="mask-type:luminance" maskUnits="userSpaceOnUse" x="351" y="-7" width="89" height="99">
<path d="M384.338 91.0625L351.302 19.302L406.708 -6.20837L439.745 65.552L384.338 91.0625Z" fill="white"/>
</mask>
<g mask="url(#mask5_90_2)">
<mask id="mask6_90_2" style="mask-type:luminance" maskUnits="userSpaceOnUse" x="351" y="-7" width="89" height="98">
<path d="M439.958 65.453L406.922 -6.30737L351.516 19.203L384.547 90.9635L439.958 65.453Z" fill="white"/>
</mask>
<g mask="url(#mask6_90_2)">
<path fill-rule="evenodd" clip-rule="evenodd" d="M374.724 50.5572C374.63 50.6614 382.104 39.3645 382.234 34.0676C382.438 25.927 379.448 20.8124 374.078 23.3801C371.276 24.7187 371.182 28.8489 374.594 32.177C379.344 36.8072 375.016 50.2239 374.724 50.5572Z" fill="#FEBD2F"/>
</g>
</g>
</g>
<mask id="mask7_90_2" style="mask-type:luminance" maskUnits="userSpaceOnUse" x="375" y="42" width="48" height="24">
<path d="M375 42.6666H423V65.3333H375V42.6666Z" fill="white"/>
</mask>
<g mask="url(#mask7_90_2)">
<mask id="mask8_90_2" style="mask-type:luminance" maskUnits="userSpaceOnUse" x="351" y="-7" width="89" height="99">
<path d="M384.338 91.0625L351.302 19.302L406.708 -6.20837L439.745 65.552L384.338 91.0625Z" fill="white"/>
</mask>
<g mask="url(#mask8_90_2)">
<mask id="mask9_90_2" style="mask-type:luminance" maskUnits="userSpaceOnUse" x="351" y="-7" width="89" height="98">
<path d="M439.958 65.453L406.922 -6.30737L351.516 19.203L384.547 90.9635L439.958 65.453Z" fill="white"/>
</mask>
<g mask="url(#mask9_90_2)">
<path fill-rule="evenodd" clip-rule="evenodd" d="M375.318 56.4947C375.146 56.3593 394.261 66.0572 403.307 64.5832C417.224 62.3176 426.037 55.3384 421.787 46.5989C419.563 42.0311 412.516 43.1874 406.74 50.3489C398.703 60.302 375.875 56.9166 375.318 56.4947Z" fill="#FEBD2F"/>
</g>
</g>
</g>
</svg>
