<svg width="20" height="21" viewBox="0 0 20 21" fill="none" xmlns="http://www.w3.org/2000/svg">
<path d="M10 18.3643C12.1217 18.3643 14.1566 17.5214 15.6569 16.0211C17.1571 14.5208 18 12.486 18 10.3643C18 8.24253 17.1571 6.20769 15.6569 4.7074C14.1566 3.20711 12.1217 2.36426 10 2.36426C7.87827 2.36426 5.84344 3.20711 4.34315 4.7074C2.84285 6.20769 2 8.24253 2 10.3643C2 12.486 2.84285 14.5208 4.34315 16.0211C5.84344 17.5214 7.87827 18.3643 10 18.3643ZM10 0.364258C11.3132 0.364258 12.6136 0.622916 13.8268 1.12546C15.0401 1.62801 16.1425 2.3646 17.0711 3.29319C17.9997 4.22178 18.7362 5.32417 19.2388 6.53742C19.7413 7.75068 20 9.05104 20 10.3643C20 13.0164 18.9464 15.56 17.0711 17.4353C15.1957 19.3107 12.6522 20.3643 10 20.3643C4.47 20.3643 0 15.8643 0 10.3643C0 7.71209 1.05357 5.16855 2.92893 3.29319C4.8043 1.41783 7.34784 0.364258 10 0.364258ZM10.5 5.36426V10.6143L15 13.2843L14.25 14.5143L9 11.3643V5.36426H10.5Z" fill="#B0B0B0"/>
</svg>
