<svg width="17" height="18" viewBox="0 0 17 18" fill="none" xmlns="http://www.w3.org/2000/svg">
<path d="M8.49999 13.8851L4.64583 16.8278C4.45485 16.9841 4.24652 17.0577 4.02083 17.0487C3.79513 17.0403 3.59548 16.9754 3.42187 16.8539C3.24826 16.7324 3.11388 16.5674 3.01874 16.3591C2.92291 16.1508 2.9184 15.9251 3.0052 15.682L4.48958 10.8643L0.713536 8.18201C0.505202 8.04312 0.374994 7.86083 0.322911 7.63513C0.270827 7.40944 0.279508 7.2011 0.348953 7.01013C0.418397 6.81916 0.539925 6.64971 0.713536 6.5018C0.887147 6.35458 1.09548 6.28096 1.33854 6.28096H5.99999L7.51041 1.28097C7.59722 1.03791 7.73194 0.851104 7.91458 0.720549C8.09652 0.590688 8.29166 0.525757 8.49999 0.525757C8.70833 0.525757 8.90347 0.590688 9.08541 0.720549C9.26805 0.851104 9.40277 1.03791 9.48958 1.28097L11 6.28096H15.6615C15.9045 6.28096 16.1128 6.35458 16.2865 6.5018C16.4601 6.64971 16.5816 6.81916 16.651 7.01013C16.7205 7.2011 16.7292 7.40944 16.6771 7.63513C16.625 7.86083 16.4948 8.04312 16.2865 8.18201L12.5104 10.8643L13.9948 15.682C14.0816 15.9251 14.0774 16.1508 13.9823 16.3591C13.8865 16.5674 13.7517 16.7324 13.5781 16.8539C13.4045 16.9754 13.2049 17.0403 12.9792 17.0487C12.7535 17.0577 12.5451 16.9841 12.3542 16.8278L8.49999 13.8851Z" fill="#FEBD2F"/>
</svg>
